<svg width="71" height="85" viewBox="0 0 71 85" fill="none" xmlns="http://www.w3.org/2000/svg">
<path d="M44.7376 4.9628C44.7376 5.2981 44.6372 5.62578 44.4491 5.90457C44.2611 6.18336 43.9937 6.40067 43.681 6.52898C43.3682 6.6573 43.0241 6.69093 42.692 6.62552C42.36 6.5601 42.0551 6.39857 41.8157 6.16147C41.5763 5.92438 41.4133 5.6223 41.3473 5.29344C41.2812 4.96458 41.3151 4.62379 41.4447 4.31401C41.5742 4.00423 41.7936 3.7395 42.075 3.55322C42.3565 3.36694 42.6874 3.26758 43.026 3.26758C43.4799 3.26758 43.9153 3.446 44.2362 3.76393C44.5572 4.08187 44.7376 4.51318 44.7376 4.9628Z" fill="url(#paint0_linear_3802_57)"/>
<path d="M40.6316 8.08612C40.6315 8.46683 40.5173 8.83887 40.3037 9.15534C40.09 9.47182 39.7864 9.71842 39.4313 9.864C39.0761 10.0096 38.6853 10.0476 38.3084 9.97322C37.9314 9.89885 37.5852 9.7154 37.3134 9.44614C37.0417 9.17688 36.8567 8.83397 36.7817 8.46056C36.7068 8.08715 36.7453 7.70004 36.8925 7.34832C37.0396 6.9966 37.2887 6.69595 37.6083 6.48445C37.9279 6.27296 38.3037 6.16016 38.688 6.16016C38.9433 6.16016 39.1961 6.21005 39.432 6.30684C39.6679 6.40364 39.8822 6.54546 40.0627 6.72431C40.2432 6.90315 40.3863 7.11546 40.4839 7.34911C40.5815 7.58277 40.6317 7.83324 40.6316 8.08612Z" fill="url(#paint1_linear_3802_57)"/>
<path d="M33.7329 0.528795C33.7329 0.623219 33.7046 0.71551 33.6516 0.79402C33.5987 0.872531 33.5234 0.933712 33.4354 0.969846C33.3473 1.00598 33.2503 1.01542 33.1568 0.997003C33.0633 0.978582 32.9775 0.93314 32.9101 0.866373C32.8427 0.799605 32.7967 0.714372 32.7781 0.621762C32.7595 0.529153 32.7691 0.433267 32.8055 0.346031C32.842 0.258794 32.9038 0.184208 32.9831 0.131749C33.0624 0.07929 33.1555 0.0512695 33.2509 0.0512695C33.3787 0.0512695 33.5013 0.101486 33.5917 0.191018C33.6821 0.280551 33.7329 0.402176 33.7329 0.528795Z" fill="url(#paint2_linear_3802_57)"/>
<path d="M43.9955 0.528795C43.9955 0.623219 43.9672 0.71551 43.9142 0.79402C43.8613 0.872531 43.786 0.933712 43.6979 0.969846C43.6098 1.00598 43.5129 1.01542 43.4194 0.997003C43.3259 0.978582 43.24 0.93314 43.1726 0.866373C43.1052 0.799605 43.0593 0.714372 43.0407 0.621762C43.0221 0.529153 43.0316 0.433267 43.0681 0.346031C43.1046 0.258794 43.1664 0.184208 43.2457 0.131749C43.3249 0.07929 43.4181 0.0512695 43.5135 0.0512695C43.6413 0.0512695 43.7639 0.101486 43.8543 0.191018C43.9447 0.280551 43.9955 0.402176 43.9955 0.528795Z" fill="url(#paint3_linear_3802_57)"/>
<path d="M35.1915 5.7392C35.1913 5.91436 35.1387 6.08543 35.0404 6.231C34.942 6.37656 34.8023 6.48996 34.6388 6.55688C34.4754 6.6238 34.2956 6.6413 34.1222 6.60703C33.9487 6.57276 33.7895 6.48832 33.6645 6.3644C33.5395 6.24049 33.4544 6.08267 33.42 5.91086C33.3855 5.73906 33.4033 5.56086 33.471 5.39905C33.5387 5.23723 33.6533 5.0991 33.8004 5.0018C33.9475 4.9045 34.1203 4.85254 34.2972 4.85254C34.4147 4.85254 34.531 4.87537 34.6396 4.91994C34.7482 4.9645 34.8468 5.02987 34.9298 5.11221C35.0129 5.19456 35.0788 5.29227 35.1237 5.39984C35.1686 5.50741 35.1916 5.62281 35.1915 5.7392Z" fill="url(#paint4_linear_3802_57)"/>
<path d="M39.1882 18.834C39.1882 19.3593 39.0309 19.8729 38.7363 20.3096C38.4416 20.7464 38.0229 21.0869 37.5329 21.2879C37.043 21.4889 36.5039 21.5414 35.9837 21.4389C35.4636 21.3365 34.9858 21.0835 34.6108 20.712C34.2359 20.3406 33.9805 19.8674 33.877 19.3522C33.7736 18.837 33.8267 18.303 34.0296 17.8177C34.2326 17.3325 34.5762 16.9176 35.0172 16.6258C35.4581 16.334 35.9765 16.1782 36.5068 16.1782C37.218 16.1782 37.9 16.4582 38.4029 16.9563C38.9057 17.4543 39.1882 18.1297 39.1882 18.834Z" fill="url(#paint5_linear_3802_57)"/>
<path d="M26.2048 18.834C26.2048 19.3593 26.0475 19.8729 25.7529 20.3096C25.4583 20.7464 25.0395 21.0869 24.5495 21.2879C24.0596 21.4889 23.5205 21.5414 23.0003 21.4389C22.4802 21.3365 22.0024 21.0835 21.6275 20.712C21.2525 20.3406 20.9971 19.8674 20.8936 19.3522C20.7902 18.837 20.8433 18.303 21.0462 17.8177C21.2491 17.3325 21.5928 16.9176 22.0338 16.6258C22.4747 16.334 22.9931 16.1782 23.5234 16.1782C24.2346 16.1782 24.9166 16.4582 25.4194 16.9563C25.9223 17.4543 26.2048 18.1297 26.2048 18.834Z" fill="url(#paint6_linear_3802_57)"/>
<path d="M20.7103 27.7891C20.7103 28.3144 20.553 28.828 20.2584 29.2647C19.9638 29.7015 19.545 30.0417 19.055 30.2428C18.5651 30.4438 18.026 30.4965 17.5058 30.394C16.9857 30.2915 16.5079 30.0385 16.1329 29.6671C15.758 29.2957 15.5026 28.8225 15.3991 28.3073C15.2957 27.7921 15.3487 27.2581 15.5517 26.7728C15.7546 26.2875 16.0983 25.8727 16.5393 25.5809C16.9802 25.2891 17.4986 25.1333 18.0289 25.1333C18.7401 25.1333 19.4221 25.4131 19.9249 25.9111C20.4278 26.4092 20.7103 27.0848 20.7103 27.7891Z" fill="url(#paint7_linear_3802_57)"/>
<path d="M13.4952 23.6738C13.4952 24.3178 13.3024 24.9474 12.9412 25.4828C12.58 26.0182 12.0666 26.4355 11.4659 26.6819C10.8653 26.9283 10.2044 26.9929 9.56673 26.8672C8.92909 26.7416 8.34338 26.4315 7.88366 25.9762C7.42395 25.5209 7.11089 24.9407 6.98406 24.3091C6.85722 23.6776 6.92233 23.0229 7.17113 22.428C7.41992 21.833 7.84122 21.3244 8.38179 20.9667C8.92235 20.6089 9.55789 20.418 10.208 20.418C10.6397 20.4179 11.0672 20.5022 11.4661 20.6658C11.8649 20.8293 12.2273 21.0691 12.5326 21.3714C12.8379 21.6738 13.08 22.0327 13.2451 22.4278C13.4103 22.8228 13.4953 23.2462 13.4952 23.6738Z" fill="url(#paint8_linear_3802_57)"/>
<path d="M19.9744 20.4142C19.9744 20.7949 19.8605 21.1671 19.647 21.4837C19.4334 21.8002 19.1299 22.047 18.7748 22.1927C18.4197 22.3384 18.029 22.3767 17.652 22.3025C17.275 22.2283 16.9287 22.045 16.6568 21.7758C16.385 21.5067 16.1998 21.1638 16.1247 20.7905C16.0496 20.4171 16.088 20.03 16.235 19.6782C16.382 19.3264 16.6309 19.0258 16.9505 18.8141C17.27 18.6025 17.6457 18.4894 18.03 18.4893C18.5456 18.4893 19.04 18.692 19.4047 19.053C19.7693 19.414 19.9742 19.9036 19.9744 20.4142Z" fill="url(#paint9_linear_3802_57)"/>
<path d="M36.0163 13.9502C36.0163 14.2502 35.9265 14.5435 35.7582 14.7929C35.5899 15.0423 35.3508 15.2367 35.071 15.3515C34.7912 15.4663 34.4833 15.4962 34.1863 15.4377C33.8892 15.3792 33.6164 15.2347 33.4022 15.0226C33.1881 14.8105 33.0422 14.5404 32.9832 14.2462C32.9241 13.952 32.9544 13.647 33.0703 13.3698C33.1862 13.0927 33.3825 12.8558 33.6343 12.6891C33.8861 12.5225 34.1821 12.4336 34.485 12.4336C34.8911 12.4336 35.2806 12.5934 35.5678 12.8778C35.8549 13.1623 36.0163 13.548 36.0163 13.9502Z" fill="url(#paint10_linear_3802_57)"/>
<path d="M29.8344 18.49C29.8344 18.7279 29.7632 18.9603 29.6298 19.1581C29.4964 19.3558 29.3068 19.5101 29.085 19.6011C28.8631 19.6921 28.619 19.7159 28.3835 19.6695C28.148 19.6231 27.9317 19.5086 27.7619 19.3404C27.5922 19.1723 27.4765 18.958 27.4297 18.7247C27.3829 18.4915 27.4069 18.2497 27.4988 18.03C27.5907 17.8102 27.7463 17.6223 27.9459 17.4902C28.1456 17.3581 28.3803 17.2876 28.6204 17.2876C28.7798 17.2875 28.9378 17.3186 29.0851 17.379C29.2324 17.4394 29.3663 17.528 29.4791 17.6396C29.5918 17.7513 29.6813 17.8838 29.7422 18.0298C29.8032 18.1757 29.8345 18.3321 29.8344 18.49Z" fill="url(#paint11_linear_3802_57)"/>
<path d="M24.7362 23.6748C24.7362 23.9126 24.665 24.1451 24.5316 24.3428C24.3982 24.5406 24.2086 24.6946 23.9868 24.7857C23.765 24.8767 23.5209 24.9004 23.2854 24.854C23.0499 24.8076 22.8335 24.6932 22.6638 24.525C22.494 24.3568 22.3783 24.1426 22.3315 23.9093C22.2846 23.676 22.3087 23.4342 22.4006 23.2145C22.4925 22.9948 22.6481 22.8071 22.8477 22.675C23.0474 22.5428 23.2821 22.4722 23.5222 22.4722C23.8442 22.4722 24.153 22.5989 24.3806 22.8244C24.6083 23.0499 24.7362 23.3559 24.7362 23.6748Z" fill="url(#paint12_linear_3802_57)"/>
<path d="M32.7877 22.7897C32.7877 22.9649 32.7352 23.1362 32.637 23.2819C32.5387 23.4275 32.399 23.5411 32.2356 23.6082C32.0722 23.6752 31.8923 23.6927 31.7189 23.6585C31.5454 23.6243 31.386 23.54 31.261 23.4161C31.1359 23.2922 31.0507 23.1344 31.0162 22.9625C30.9817 22.7907 30.9994 22.6126 31.0671 22.4507C31.1348 22.2889 31.2494 22.1504 31.3965 22.0531C31.5436 21.9557 31.7164 21.9038 31.8933 21.9038C32.1305 21.9038 32.358 21.9972 32.5257 22.1633C32.6935 22.3294 32.7877 22.5547 32.7877 22.7897Z" fill="url(#paint13_linear_3802_57)"/>
<path d="M42.4294 13.8478C42.4294 14.023 42.377 14.1941 42.2787 14.3398C42.1804 14.4855 42.0407 14.599 41.8773 14.6661C41.7139 14.7331 41.5341 14.7508 41.3606 14.7166C41.1871 14.6824 41.0278 14.5981 40.9027 14.4742C40.7776 14.3503 40.6924 14.1923 40.6579 14.0204C40.6234 13.8486 40.6411 13.6707 40.7088 13.5088C40.7765 13.347 40.8911 13.2085 41.0382 13.1112C41.1853 13.0138 41.3582 12.9619 41.5351 12.9619C41.6525 12.9619 41.7688 12.9848 41.8773 13.0293C41.9858 13.0738 42.0844 13.1391 42.1675 13.2214C42.2505 13.3036 42.3163 13.4013 42.3613 13.5088C42.4062 13.6163 42.4294 13.7315 42.4294 13.8478Z" fill="url(#paint14_linear_3802_57)"/>
<path d="M21.5345 10.9689C21.5345 11.1441 21.4821 11.3152 21.3838 11.4609C21.2855 11.6065 21.1458 11.7201 20.9824 11.7872C20.819 11.8542 20.6392 11.8719 20.4657 11.8377C20.2922 11.8035 20.1329 11.7192 20.0078 11.5953C19.8827 11.4714 19.7975 11.3136 19.763 11.1417C19.7285 10.9699 19.7462 10.7918 19.8139 10.6299C19.8816 10.468 19.9962 10.3296 20.1433 10.2323C20.2904 10.1349 20.4633 10.083 20.6402 10.083C20.8774 10.083 21.1048 10.1764 21.2726 10.3425C21.4403 10.5086 21.5345 10.7339 21.5345 10.9689Z" fill="url(#paint15_linear_3802_57)"/>
<path d="M41.5445 20.4184C41.5445 20.5936 41.4921 20.7649 41.3938 20.9106C41.2955 21.0563 41.1559 21.1698 40.9924 21.2369C40.829 21.3039 40.6492 21.3214 40.4757 21.2872C40.3022 21.253 40.1429 21.1687 40.0178 21.0448C39.8927 20.9209 39.8076 20.7631 39.773 20.5912C39.7385 20.4194 39.7562 20.2413 39.8239 20.0794C39.8916 19.9176 40.0062 19.7793 40.1533 19.682C40.3004 19.5846 40.4733 19.5327 40.6502 19.5327C40.8874 19.5327 41.1149 19.6261 41.2826 19.7922C41.4503 19.9583 41.5445 20.1835 41.5445 20.4184Z" fill="url(#paint16_linear_3802_57)"/>
<path d="M16.2514 23.6752C16.2512 23.8504 16.1986 24.0215 16.1002 24.167C16.0019 24.3126 15.8621 24.426 15.6987 24.4929C15.5353 24.5598 15.3555 24.5773 15.1821 24.5431C15.0086 24.5088 14.8494 24.4244 14.7244 24.3004C14.5994 24.1765 14.5143 24.0187 14.4798 23.8469C14.4454 23.6751 14.4632 23.4971 14.5309 23.3353C14.5986 23.1735 14.7132 23.0351 14.8603 22.9378C15.0073 22.8405 15.1802 22.7886 15.357 22.7886C15.4745 22.7886 15.5909 22.8114 15.6995 22.856C15.808 22.9005 15.9067 22.9659 15.9897 23.0482C16.0728 23.1306 16.1386 23.2283 16.1835 23.3359C16.2284 23.4434 16.2515 23.5588 16.2514 23.6752Z" fill="url(#paint17_linear_3802_57)"/>
<path d="M28.6214 21.4897C28.6214 21.5842 28.5931 21.6764 28.5401 21.755C28.4871 21.8335 28.4117 21.8947 28.3236 21.9308C28.2355 21.9669 28.1386 21.9764 28.045 21.9579C27.9515 21.9395 27.8656 21.8938 27.7982 21.8269C27.7309 21.7601 27.685 21.675 27.6665 21.5823C27.648 21.4896 27.6577 21.3936 27.6943 21.3064C27.7309 21.2192 27.7928 21.1447 27.8722 21.0923C27.9515 21.0399 28.0448 21.012 28.1402 21.0122C28.2679 21.0124 28.3902 21.0628 28.4805 21.1524C28.5707 21.2419 28.6214 21.3633 28.6214 21.4897Z" fill="url(#paint18_linear_3802_57)"/>
<path d="M22.7835 13.9482C22.7835 14.0427 22.7552 14.1349 22.7022 14.2135C22.6492 14.292 22.5738 14.3532 22.4857 14.3893C22.3976 14.4254 22.3007 14.4347 22.2071 14.4162C22.1136 14.3978 22.0277 14.3523 21.9604 14.2854C21.893 14.2186 21.8471 14.1335 21.8286 14.0408C21.8101 13.9481 21.8198 13.8521 21.8564 13.7649C21.893 13.6776 21.9549 13.6031 22.0343 13.5508C22.1136 13.4984 22.2069 13.4705 22.3023 13.4707C22.43 13.4709 22.5524 13.5213 22.6426 13.6108C22.7328 13.7004 22.7835 13.8218 22.7835 13.9482Z" fill="url(#paint19_linear_3802_57)"/>
<path d="M13.6172 18.6775C13.6171 18.772 13.5886 18.8641 13.5355 18.9426C13.4824 19.021 13.407 19.082 13.3189 19.118C13.2308 19.154 13.1338 19.1633 13.0404 19.1448C12.9469 19.1262 12.8611 19.0806 12.7938 19.0137C12.7265 18.9468 12.6807 18.8618 12.6623 18.7691C12.6439 18.6765 12.6536 18.5804 12.6902 18.4932C12.7268 18.406 12.7888 18.3316 12.8681 18.2793C12.9475 18.227 13.0407 18.1991 13.136 18.1992C13.1993 18.1993 13.262 18.2118 13.3204 18.2359C13.3789 18.26 13.4319 18.2954 13.4766 18.3398C13.5213 18.3842 13.5567 18.4368 13.5808 18.4948C13.6049 18.5527 13.6173 18.6148 13.6172 18.6775Z" fill="url(#paint20_linear_3802_57)"/>
<path d="M28.6256 12.0209C28.6256 12.4016 28.5117 12.7737 28.2981 13.0903C28.0845 13.4069 27.781 13.6536 27.4258 13.7993C27.0707 13.9451 26.6799 13.9832 26.3029 13.909C25.9259 13.8347 25.5795 13.6513 25.3077 13.3821C25.0359 13.1129 24.8508 12.7697 24.7758 12.3963C24.7008 12.0229 24.7393 11.6358 24.8864 11.2841C25.0335 10.9323 25.2826 10.6317 25.6022 10.4202C25.9219 10.2087 26.2976 10.0957 26.682 10.0957C27.1975 10.0957 27.6919 10.2984 28.0564 10.6595C28.4209 11.0205 28.6256 11.5103 28.6256 12.0209Z" fill="url(#paint21_linear_3802_57)"/>
<path d="M32.0534 9.29081C32.0534 9.52864 31.9822 9.76109 31.8488 9.95883C31.7154 10.1566 31.5258 10.3107 31.304 10.4017C31.0822 10.4927 30.8381 10.5167 30.6026 10.4703C30.3671 10.4239 30.1507 10.3092 29.981 10.141C29.8112 9.97284 29.6955 9.75857 29.6487 9.52532C29.6018 9.29206 29.6259 9.05046 29.7178 8.83073C29.8097 8.61101 29.9653 8.42309 30.1649 8.29097C30.3646 8.15884 30.5993 8.08838 30.8394 8.08838C31.1614 8.08838 31.4702 8.21512 31.6978 8.44063C31.9255 8.66613 32.0534 8.9719 32.0534 9.29081Z" fill="url(#paint22_linear_3802_57)"/>
<path d="M35.4498 10.4873C35.4498 10.5817 35.4215 10.674 35.3686 10.7525C35.3156 10.831 35.2404 10.8922 35.1523 10.9283C35.0642 10.9645 34.9673 10.9739 34.8738 10.9555C34.7803 10.9371 34.6944 10.8916 34.627 10.8249C34.5596 10.7581 34.5137 10.6729 34.4951 10.5803C34.4765 10.4876 34.486 10.3918 34.5225 10.3045C34.559 10.2173 34.6208 10.1427 34.7 10.0902C34.7793 10.0378 34.8725 10.0098 34.9678 10.0098C35.0956 10.0098 35.2182 10.0602 35.3086 10.1497C35.399 10.2392 35.4498 10.3607 35.4498 10.4873Z" fill="url(#paint23_linear_3802_57)"/>
<path d="M45.2238 8.39432C45.2238 8.48878 45.1955 8.58122 45.1425 8.65974C45.0895 8.73827 45.0142 8.79946 44.9261 8.83557C44.8379 8.87168 44.7409 8.88102 44.6474 8.86253C44.5539 8.84404 44.468 8.79855 44.4007 8.7317C44.3333 8.66485 44.2874 8.57975 44.2689 8.48709C44.2504 8.39443 44.2601 8.29838 44.2967 8.21116C44.3333 8.12394 44.3952 8.04944 44.4746 7.99708C44.5539 7.94471 44.6472 7.91683 44.7426 7.91699C44.8058 7.91699 44.8685 7.92927 44.9269 7.95327C44.9853 7.97727 45.0385 8.0124 45.0832 8.05674C45.1278 8.10108 45.1632 8.15384 45.1874 8.21175C45.2115 8.26967 45.2239 8.33166 45.2238 8.39432Z" fill="url(#paint24_linear_3802_57)"/>
<path d="M39.1613 14.2573C39.1615 14.3518 39.1334 14.4443 39.0805 14.5229C39.0276 14.6015 38.9524 14.6627 38.8644 14.6989C38.7763 14.7352 38.6793 14.7448 38.5858 14.7265C38.4922 14.7082 38.4063 14.6628 38.3388 14.5961C38.2713 14.5293 38.2253 14.4443 38.2066 14.3517C38.188 14.259 38.1975 14.163 38.234 14.0757C38.2704 13.9884 38.3322 13.9137 38.4115 13.8612C38.4908 13.8087 38.584 13.7808 38.6793 13.7808C38.807 13.7808 38.9295 13.831 39.0199 13.9203C39.1102 14.0097 39.1611 14.1308 39.1613 14.2573Z" fill="url(#paint25_linear_3802_57)"/>
<path d="M20.6438 24.0849C20.6438 24.1794 20.6155 24.2717 20.5625 24.3502C20.5096 24.4287 20.4343 24.4899 20.3462 24.526C20.2581 24.5621 20.1612 24.5716 20.0677 24.5532C19.9742 24.5347 19.8883 24.4893 19.8209 24.4225C19.7535 24.3558 19.7076 24.2707 19.689 24.1781C19.6704 24.0855 19.68 23.9894 19.7164 23.9022C19.7529 23.8149 19.8147 23.7404 19.894 23.6879C19.9732 23.6354 20.0664 23.6074 20.1617 23.6074C20.2896 23.6074 20.4122 23.6578 20.5026 23.7474C20.593 23.8369 20.6438 23.9583 20.6438 24.0849Z" fill="url(#paint26_linear_3802_57)"/>
<path d="M37.7217 23.6094C37.7217 23.7038 37.6934 23.7961 37.6405 23.8746C37.5875 23.9531 37.5122 24.0143 37.4242 24.0504C37.3361 24.0865 37.2392 24.096 37.1457 24.0776C37.0522 24.0591 36.9663 24.0137 36.8989 23.9469C36.8315 23.8802 36.7855 23.7949 36.7669 23.7023C36.7483 23.6097 36.7579 23.5138 36.7944 23.4266C36.8309 23.3394 36.8927 23.2648 36.9719 23.2123C37.0512 23.1599 37.1444 23.1318 37.2397 23.1318C37.3675 23.1318 37.4901 23.1821 37.5805 23.2716C37.6709 23.3611 37.7217 23.4827 37.7217 23.6094Z" fill="url(#paint27_linear_3802_57)"/>
<path d="M23.2722 27.3079C23.2722 27.4023 23.2439 27.4946 23.1909 27.5731C23.138 27.6516 23.0627 27.7128 22.9746 27.7489C22.8866 27.7851 22.7896 27.7945 22.6961 27.7761C22.6026 27.7577 22.5168 27.7122 22.4493 27.6455C22.3819 27.5787 22.336 27.4937 22.3174 27.4011C22.2988 27.3084 22.3084 27.2124 22.3448 27.1251C22.3813 27.0379 22.4431 26.9635 22.5224 26.911C22.6017 26.8586 22.6948 26.8306 22.7902 26.8306C22.8535 26.8306 22.9162 26.8428 22.9746 26.8668C23.0331 26.8908 23.0862 26.926 23.131 26.9703C23.1757 27.0146 23.2113 27.0672 23.2355 27.1251C23.2597 27.1831 23.2722 27.2452 23.2722 27.3079Z" fill="url(#paint28_linear_3802_57)"/>
<path d="M42.5029 10.9697C42.5029 11.0642 42.4746 11.1564 42.4216 11.2349C42.3686 11.3135 42.2932 11.3747 42.2051 11.4108C42.117 11.4469 42.0201 11.4564 41.9265 11.4379C41.833 11.4194 41.7472 11.3737 41.6798 11.3069C41.6124 11.24 41.5665 11.1549 41.548 11.0623C41.5295 10.9696 41.5392 10.8736 41.5758 10.7864C41.6124 10.6991 41.6743 10.6246 41.7537 10.5723C41.833 10.5199 41.9263 10.492 42.0217 10.4922C42.1494 10.4924 42.2718 10.5428 42.362 10.6323C42.4522 10.7218 42.5029 10.8432 42.5029 10.9697Z" fill="url(#paint29_linear_3802_57)"/>
<path d="M30.8007 14.7339C30.8007 14.8283 30.7724 14.9206 30.7195 14.9991C30.6665 15.0776 30.5912 15.1388 30.5031 15.1749C30.4151 15.2111 30.3181 15.2205 30.2246 15.2021C30.1311 15.1837 30.0453 15.1382 29.9778 15.0715C29.9104 15.0047 29.8645 14.9196 29.8459 14.827C29.8273 14.7344 29.8369 14.6383 29.8734 14.5511C29.9098 14.4639 29.9716 14.3893 30.0509 14.3368C30.1302 14.2844 30.2233 14.2563 30.3187 14.2563C30.382 14.2563 30.4447 14.2688 30.5031 14.2928C30.5616 14.3168 30.6148 14.352 30.6595 14.3963C30.7043 14.4406 30.7398 14.4932 30.764 14.5511C30.7882 14.609 30.8007 14.6712 30.8007 14.7339Z" fill="url(#paint30_linear_3802_57)"/>
<path d="M44.9057 16.4535C44.7731 16.3949 44.633 16.3548 44.4893 16.3341C44.4614 16.3268 44.4352 16.3179 44.4073 16.3105L44.4122 16.326C44.3596 16.318 44.3065 16.3128 44.2532 16.3105C43.8341 16.3105 43.4321 16.4755 43.1357 16.769C42.8393 17.0626 42.6728 17.4608 42.6728 17.8759C42.6728 18.2911 42.8393 18.6893 43.1357 18.9828C43.4321 19.2764 43.8341 19.4413 44.2532 19.4413C44.4498 19.4406 44.6445 19.4031 44.827 19.3309C44.8003 19.7583 44.738 20.1827 44.6409 20.5999C44.5274 20.5575 44.4064 20.538 44.2852 20.5427C44.1639 20.5473 44.0448 20.576 43.9349 20.6269C43.825 20.6778 43.7265 20.75 43.6452 20.8392C43.5639 20.9284 43.5014 21.0329 43.4616 21.1465C43.4217 21.26 43.4051 21.3803 43.4129 21.5003C43.4207 21.6202 43.4526 21.7373 43.5068 21.8448C43.561 21.9523 43.6364 22.0481 43.7286 22.1263C43.8207 22.2045 43.9278 22.2635 44.0434 22.3001C43.9286 22.5415 43.8029 22.7798 43.6663 23.0147C43.6134 22.9739 43.5524 22.9446 43.4874 22.9285C43.4223 22.9124 43.3546 22.91 43.2885 22.9214C43.2224 22.9328 43.1595 22.9578 43.1038 22.9947C43.0481 23.0317 43.0008 23.0797 42.965 23.1358C42.9291 23.192 42.9056 23.2551 42.8958 23.3208C42.886 23.3865 42.8903 23.4534 42.9082 23.5174C42.9262 23.5814 42.9575 23.641 43.0001 23.6923C43.0427 23.7436 43.0956 23.7856 43.1556 23.8154H43.1638C43.2034 23.8346 43.2457 23.8479 43.2892 23.855C49.0164 25.5689 54.028 29.0762 57.572 33.8505C61.1161 38.6248 63.0015 44.4087 62.9454 50.3344C62.8892 56.26 60.8945 62.0079 57.2606 66.7155C53.6267 71.4231 48.5495 74.8365 42.7909 76.4436C37.0323 78.0507 30.9027 77.7649 25.322 75.6289C19.7413 73.493 15.0105 69.622 11.8392 64.5971C8.66795 59.5721 7.22738 53.6641 7.73363 47.7594C8.23988 41.8547 10.6657 36.2718 14.647 31.8484C14.7489 31.7663 14.8364 31.6682 14.906 31.5579C14.9249 31.5376 14.9413 31.5157 14.9609 31.4954H14.9413C15.0285 31.3346 15.0775 31.1562 15.0846 30.9739C15.0918 30.7915 15.0568 30.61 14.9824 30.443C14.908 30.2761 14.7962 30.128 14.6554 30.0103C14.5146 29.8926 14.3485 29.8083 14.1698 29.7637C13.9911 29.7191 13.8045 29.7156 13.6242 29.7532C13.4439 29.7908 13.2747 29.8686 13.1293 29.9808C12.984 30.0929 12.8664 30.2364 12.7855 30.4004C12.7046 30.5644 12.6625 30.7444 12.6624 30.9269C12.6624 30.961 12.6706 30.9935 12.6731 31.026C12.4435 30.9716 12.2165 30.914 11.9911 30.8547C11.9775 30.6762 11.9092 30.506 11.7954 30.3669C11.6816 30.2278 11.5276 30.1263 11.3541 30.0761C11.1806 30.0259 10.9958 30.0293 10.8242 30.0858C10.6527 30.1424 10.5027 30.2495 10.3942 30.3927C9.98708 30.2639 9.58733 30.1285 9.19495 29.9867C9.19495 29.9526 9.20561 29.9193 9.20561 29.8852C9.20686 29.6382 9.13095 29.3969 8.98827 29.1942C8.84559 28.9916 8.64313 28.8376 8.40864 28.7534C8.17415 28.6691 7.91911 28.6588 7.67847 28.7238C7.43783 28.7888 7.22336 28.9259 7.06447 29.1163L7.04807 29.1092C2.53317 35.0756 0.0638543 42.3161 0.00122158 49.7722C-0.0614112 57.2283 2.28592 64.5086 6.69997 70.5486C11.114 76.5886 17.3632 81.0715 24.5338 83.3417C31.7043 85.6118 39.4201 85.5503 46.5527 83.1658C53.6854 80.7814 59.8608 76.1993 64.1759 70.0895C68.4911 63.9798 70.7196 56.6629 70.5355 49.2088C70.3515 41.7547 67.7646 34.5545 63.1531 28.661C58.5416 22.7675 52.1475 18.4897 44.9057 16.4535Z" fill="url(#paint31_linear_3802_57)"/>
<path d="M26.5178 62.0025C26.5178 61.0931 26.7301 56.6876 26.7301 51.9679V42.9124C25.703 44.101 22.9749 46.6888 21.9478 47.737L20.3535 45.8491C21.0265 45.2547 28.927 37.9824 29.9542 36.8286H30.0607C30.0607 37.9824 29.7771 42.6322 29.7771 47.352V52.7368C29.7771 57.7708 29.7418 60.9177 29.8476 62.0017L26.5178 62.0025Z" fill="url(#paint32_linear_3802_57)"/>
<path d="M43.7408 39.0362C40.7666 40.947 38.3388 43.5836 36.6911 46.6927C42.6079 46.4832 47.1066 49.6294 47.1066 54.035C47.0904 56.2737 46.1929 58.4178 44.605 60.0111C43.0171 61.6043 40.8642 62.521 38.6044 62.566C37.682 62.612 36.7602 62.4646 35.8993 62.1333C35.0384 61.8019 34.2579 61.2942 33.6089 60.6434C32.1916 59.1754 31.4481 57.2519 31.4481 54.4548C31.4481 47.5323 37.0813 39.9805 41.8997 36.624L43.7408 39.0362ZM38.8519 60.014C41.7923 60.014 43.7769 57.532 43.7769 54.7365C43.7769 50.8554 39.7381 48.8282 35.5927 49.1075C34.9003 50.7314 34.5738 52.4852 34.636 54.2469C34.636 57.8112 36.4075 60.014 38.8519 60.014Z" fill="url(#paint33_linear_3802_57)"/>
<defs>
<linearGradient id="paint0_linear_3802_57" x1="43.026" y1="6.65808" x2="43.026" y2="3.26758" gradientUnits="userSpaceOnUse">
<stop stop-color="#087BBA"/>
<stop offset="1" stop-color="#089FE8"/>
</linearGradient>
<linearGradient id="paint1_linear_3802_57" x1="38.688" y1="10.0103" x2="38.688" y2="6.16016" gradientUnits="userSpaceOnUse">
<stop stop-color="#087BBA"/>
<stop offset="1" stop-color="#089FE8"/>
</linearGradient>
<linearGradient id="paint2_linear_3802_57" x1="33.2509" y1="1.00618" x2="33.2509" y2="0.0512695" gradientUnits="userSpaceOnUse">
<stop stop-color="#087BBA"/>
<stop offset="1" stop-color="#089FE8"/>
</linearGradient>
<linearGradient id="paint3_linear_3802_57" x1="43.5134" y1="1.00618" x2="43.5134" y2="0.0512695" gradientUnits="userSpaceOnUse">
<stop stop-color="#087BBA"/>
<stop offset="1" stop-color="#089FE8"/>
</linearGradient>
<linearGradient id="paint4_linear_3802_57" x1="34.2972" y1="6.62413" x2="34.2972" y2="4.85254" gradientUnits="userSpaceOnUse">
<stop stop-color="#087BBA"/>
<stop offset="1" stop-color="#089FE8"/>
</linearGradient>
<linearGradient id="paint5_linear_3802_57" x1="36.5068" y1="21.49" x2="36.5068" y2="16.1782" gradientUnits="userSpaceOnUse">
<stop stop-color="#087BBA"/>
<stop offset="1" stop-color="#089FE8"/>
</linearGradient>
<linearGradient id="paint6_linear_3802_57" x1="23.5234" y1="21.49" x2="23.5234" y2="16.1782" gradientUnits="userSpaceOnUse">
<stop stop-color="#087BBA"/>
<stop offset="1" stop-color="#089FE8"/>
</linearGradient>
<linearGradient id="paint7_linear_3802_57" x1="18.0289" y1="30.445" x2="18.0289" y2="25.1333" gradientUnits="userSpaceOnUse">
<stop stop-color="#087BBA"/>
<stop offset="1" stop-color="#089FE8"/>
</linearGradient>
<linearGradient id="paint8_linear_3802_57" x1="10.208" y1="26.9298" x2="10.208" y2="20.418" gradientUnits="userSpaceOnUse">
<stop stop-color="#087BBA"/>
<stop offset="1" stop-color="#089FE8"/>
</linearGradient>
<linearGradient id="paint9_linear_3802_57" x1="18.0309" y1="22.3394" x2="18.0309" y2="18.4893" gradientUnits="userSpaceOnUse">
<stop stop-color="#087BBA"/>
<stop offset="1" stop-color="#089FE8"/>
</linearGradient>
<linearGradient id="paint10_linear_3802_57" x1="34.485" y1="15.4669" x2="34.485" y2="12.4336" gradientUnits="userSpaceOnUse">
<stop stop-color="#087BBA"/>
<stop offset="1" stop-color="#089FE8"/>
</linearGradient>
<linearGradient id="paint11_linear_3802_57" x1="28.6204" y1="19.6926" x2="28.6204" y2="17.2876" gradientUnits="userSpaceOnUse">
<stop stop-color="#087BBA"/>
<stop offset="1" stop-color="#089FE8"/>
</linearGradient>
<linearGradient id="paint12_linear_3802_57" x1="23.5222" y1="24.8772" x2="23.5222" y2="22.4722" gradientUnits="userSpaceOnUse">
<stop stop-color="#087BBA"/>
<stop offset="1" stop-color="#089FE8"/>
</linearGradient>
<linearGradient id="paint13_linear_3802_57" x1="31.8933" y1="23.6755" x2="31.8933" y2="21.9038" gradientUnits="userSpaceOnUse">
<stop stop-color="#087BBA"/>
<stop offset="1" stop-color="#089FE8"/>
</linearGradient>
<linearGradient id="paint14_linear_3802_57" x1="41.5351" y1="14.7336" x2="41.5351" y2="12.9619" gradientUnits="userSpaceOnUse">
<stop stop-color="#087BBA"/>
<stop offset="1" stop-color="#089FE8"/>
</linearGradient>
<linearGradient id="paint15_linear_3802_57" x1="20.6402" y1="11.8547" x2="20.6402" y2="10.083" gradientUnits="userSpaceOnUse">
<stop stop-color="#087BBA"/>
<stop offset="1" stop-color="#089FE8"/>
</linearGradient>
<linearGradient id="paint16_linear_3802_57" x1="40.6502" y1="21.3042" x2="40.6502" y2="19.5327" gradientUnits="userSpaceOnUse">
<stop stop-color="#087BBA"/>
<stop offset="1" stop-color="#089FE8"/>
</linearGradient>
<linearGradient id="paint17_linear_3802_57" x1="15.357" y1="24.5602" x2="15.357" y2="22.7886" gradientUnits="userSpaceOnUse">
<stop stop-color="#087BBA"/>
<stop offset="1" stop-color="#089FE8"/>
</linearGradient>
<linearGradient id="paint18_linear_3802_57" x1="28.1394" y1="21.9671" x2="28.1394" y2="21.0122" gradientUnits="userSpaceOnUse">
<stop stop-color="#087BBA"/>
<stop offset="1" stop-color="#089FE8"/>
</linearGradient>
<linearGradient id="paint19_linear_3802_57" x1="22.3015" y1="14.4255" x2="22.3015" y2="13.4707" gradientUnits="userSpaceOnUse">
<stop stop-color="#087BBA"/>
<stop offset="1" stop-color="#089FE8"/>
</linearGradient>
<linearGradient id="paint20_linear_3802_57" x1="13.1352" y1="19.1541" x2="13.1352" y2="18.1992" gradientUnits="userSpaceOnUse">
<stop stop-color="#087BBA"/>
<stop offset="1" stop-color="#089FE8"/>
</linearGradient>
<linearGradient id="paint21_linear_3802_57" x1="26.682" y1="13.9459" x2="26.682" y2="10.0957" gradientUnits="userSpaceOnUse">
<stop stop-color="#087BBA"/>
<stop offset="1" stop-color="#089FE8"/>
</linearGradient>
<linearGradient id="paint22_linear_3802_57" x1="30.8394" y1="10.4933" x2="30.8394" y2="8.08838" gradientUnits="userSpaceOnUse">
<stop stop-color="#087BBA"/>
<stop offset="1" stop-color="#089FE8"/>
</linearGradient>
<linearGradient id="paint23_linear_3802_57" x1="34.9678" y1="10.9647" x2="34.9678" y2="10.0098" gradientUnits="userSpaceOnUse">
<stop stop-color="#087BBA"/>
<stop offset="1" stop-color="#089FE8"/>
</linearGradient>
<linearGradient id="paint24_linear_3802_57" x1="44.7418" y1="8.87178" x2="44.7418" y2="7.91699" gradientUnits="userSpaceOnUse">
<stop stop-color="#087BBA"/>
<stop offset="1" stop-color="#089FE8"/>
</linearGradient>
<linearGradient id="paint25_linear_3802_57" x1="38.6793" y1="14.7356" x2="38.6793" y2="13.7808" gradientUnits="userSpaceOnUse">
<stop stop-color="#087BBA"/>
<stop offset="1" stop-color="#089FE8"/>
</linearGradient>
<linearGradient id="paint26_linear_3802_57" x1="20.1617" y1="24.5623" x2="20.1617" y2="23.6074" gradientUnits="userSpaceOnUse">
<stop stop-color="#087BBA"/>
<stop offset="1" stop-color="#089FE8"/>
</linearGradient>
<linearGradient id="paint27_linear_3802_57" x1="37.2397" y1="24.0867" x2="37.2397" y2="23.1318" gradientUnits="userSpaceOnUse">
<stop stop-color="#087BBA"/>
<stop offset="1" stop-color="#089FE8"/>
</linearGradient>
<linearGradient id="paint28_linear_3802_57" x1="22.7902" y1="27.7853" x2="22.7902" y2="26.8306" gradientUnits="userSpaceOnUse">
<stop stop-color="#087BBA"/>
<stop offset="1" stop-color="#089FE8"/>
</linearGradient>
<linearGradient id="paint29_linear_3802_57" x1="42.0209" y1="11.4471" x2="42.0209" y2="10.4922" gradientUnits="userSpaceOnUse">
<stop stop-color="#087BBA"/>
<stop offset="1" stop-color="#089FE8"/>
</linearGradient>
<linearGradient id="paint30_linear_3802_57" x1="30.3187" y1="15.2113" x2="30.3187" y2="14.2563" gradientUnits="userSpaceOnUse">
<stop stop-color="#087BBA"/>
<stop offset="1" stop-color="#089FE8"/>
</linearGradient>
<linearGradient id="paint31_linear_3802_57" x1="35.273" y1="85.0004" x2="35.273" y2="16.3105" gradientUnits="userSpaceOnUse">
<stop stop-color="#087BBA"/>
<stop offset="1" stop-color="#089FE8"/>
</linearGradient>
<linearGradient id="paint32_linear_3802_57" x1="25.2071" y1="62.0025" x2="25.2071" y2="36.8286" gradientUnits="userSpaceOnUse">
<stop stop-color="#087BBA"/>
<stop offset="1" stop-color="#089FE8"/>
</linearGradient>
<linearGradient id="paint33_linear_3802_57" x1="39.2774" y1="62.5742" x2="39.2774" y2="36.624" gradientUnits="userSpaceOnUse">
<stop stop-color="#087BBA"/>
<stop offset="1" stop-color="#089FE8"/>
</linearGradient>
</defs>
</svg>
